# xmcd CD database file
#
# Track frame offsets:
#	150
#	16665
#	34850
#	47378
#	62371
#	81187
#	94115
#	109618
#	126384
#	144863
#	157219
#	178956
#	197452
#	211084
#	227392
#	242495
#	261424
#	273053
#
# Disc length: 3888 seconds
#
# Revision: 2
# Processed by: cddbd v1.5.2PL0 Copyright (c) Steve Scherf et al.
# Submitted via: CDex 1.50Beta7
#
DISCID=e40f2e12
DTITLE=Paola - Ihre Grossen Erfolge
DYEAR=1996
DGENRE=Schlager
TTITLE0=Tränen Einer Nacht
TTITLE1=Santa Marguerita
TTITLE2=Was Heut' Nicht Ist
TTITLE3=Wei Man Sich Bettet
TTITLE4=Engel Brauchen Liebe
TTITLE5=Weisse Rosen Aus Athen
TTITLE6=Nah Beim Regenbogen
TTITLE7=Träume Mal Schön Von Hawaii
TTITLE8=Wenn Du Heimkommst
TTITLE9=Ole O'cangaceiro
TTITLE10=Wahrheit Und Liebe
TTITLE11=Die Nacht Der Nächte
TTITLE12=Das Spiel Das Wir Spielen
TTITLE13=Aloha Oe
TTITLE14=Zeig Mir Den Stern Der Liebe
TTITLE15=Ich hab' Ins Paradies Gesehn
TTITLE16=Morgen Bekommst Du Mehr Von Mir
TTITLE17=Zwischen Dir Und Mir
EXTD=YEAR: 1996
EXTT0=
EXTT1=
EXTT2=
EXTT3=
EXTT4=
EXTT5=
EXTT6=
EXTT7=
EXTT8=
EXTT9=
EXTT10=
EXTT11=
EXTT12=
EXTT13=
EXTT14=
EXTT15=
EXTT16=
EXTT17=
PLAYORDER=
